solid OpenSCAD_Model
  facet normal -1 0 0
    outer loop
      vertex -36.125 -37.625 -6.6
      vertex -36.125 47.625 4.4
      vertex -36.125 47.625 -6.6
    endloop
  endfacet
  facet normal -1 -0 0
    outer loop
      vertex -36.125 47.625 4.4
      vertex -36.125 -37.625 -6.6
      vertex -36.125 -37.625 4.4
    endloop
  endfacet
  facet normal 0 0 1
    outer loop
      vertex -27.625 47.625 4.4
      vertex -34.125 42.15 4.4
      vertex -27.625 42.15 4.4
    endloop
  endfacet
  facet normal 0 0 1
    outer loop
      vertex -34.125 42.15 4.4
      vertex -36.125 47.625 4.4
      vertex -34.125 34.9 4.4
    endloop
  endfacet
  facet normal -0 0 1
    outer loop
      vertex -36.125 47.625 4.4
      vertex -34.125 42.15 4.4
      vertex -27.625 47.625 4.4
    endloop
  endfacet
  facet normal 0 0 1
    outer loop
      vertex -27 34.9 4.4
      vertex -34.125 34.9 4.4
      vertex -27 -35 4.4
    endloop
  endfacet
  facet normal 0 0 1
    outer loop
      vertex 34.125 34.9 4.4
      vertex 36.125 47.625 4.4
      vertex 34.125 42.15 4.4
    endloop
  endfacet
  facet normal -0 0 1
    outer loop
      vertex 27.625 47.625 4.4
      vertex 34.125 42.15 4.4
      vertex 36.125 47.625 4.4
    endloop
  endfacet
  facet normal 0 0 1
    outer loop
      vertex 34.125 42.15 4.4
      vertex 27.625 47.625 4.4
      vertex 27.625 42.15 4.4
    endloop
  endfacet
  facet normal 0 0 1
    outer loop
      vertex 36.125 47.625 4.4
      vertex 34.125 34.9 4.4
      vertex 36.125 -37.625 4.4
    endloop
  endfacet
  facet normal 0 0 1
    outer loop
      vertex 27 -35 4.4
      vertex 34.125 34.9 4.4
      vertex 27 34.9 4.4
    endloop
  endfacet
  facet normal 0 0 1
    outer loop
      vertex 34.125 34.9 4.4
      vertex 27 -35 4.4
      vertex 36.125 -37.625 4.4
    endloop
  endfacet
  facet normal -0 0 1
    outer loop
      vertex -27 -35 4.4
      vertex 36.125 -37.625 4.4
      vertex 27 -35 4.4
    endloop
  endfacet
  facet normal 0 0 1
    outer loop
      vertex -36.125 -37.625 4.4
      vertex -34.125 34.9 4.4
      vertex -36.125 47.625 4.4
    endloop
  endfacet
  facet normal 0 0 1
    outer loop
      vertex -27 -35 4.4
      vertex -36.125 -37.625 4.4
      vertex 36.125 -37.625 4.4
    endloop
  endfacet
  facet normal 0 0 1
    outer loop
      vertex -34.125 34.9 4.4
      vertex -36.125 -37.625 4.4
      vertex -27 -35 4.4
    endloop
  endfacet
  facet normal 1 -0 0
    outer loop
      vertex 36.125 -37.625 4.4
      vertex 36.125 47.625 -6.6
      vertex 36.125 47.625 4.4
    endloop
  endfacet
  facet normal 1 0 0
    outer loop
      vertex 36.125 47.625 -6.6
      vertex 36.125 -37.625 4.4
      vertex 36.125 -37.625 -6.6
    endloop
  endfacet
  facet normal 0 0 -1
    outer loop
      vertex -36.125 -37.625 -6.6
      vertex 36.125 47.625 -6.6
      vertex 36.125 -37.625 -6.6
    endloop
  endfacet
  facet normal -0 0 -1
    outer loop
      vertex 36.125 47.625 -6.6
      vertex -36.125 -37.625 -6.6
      vertex -36.125 47.625 -6.6
    endloop
  endfacet
  facet normal 0 -1 0
    outer loop
      vertex -36.125 -37.625 -6.6
      vertex 36.125 -37.625 4.4
      vertex -36.125 -37.625 4.4
    endloop
  endfacet
  facet normal 0 -1 -0
    outer loop
      vertex 36.125 -37.625 4.4
      vertex -36.125 -37.625 -6.6
      vertex 36.125 -37.625 -6.6
    endloop
  endfacet
  facet normal 0 1 0
    outer loop
      vertex 36.125 47.625 4.4
      vertex 27.625 47.625 -4.5
      vertex 27.625 47.625 4.4
    endloop
  endfacet
  facet normal 0 1 0
    outer loop
      vertex 27.625 47.625 -4.5
      vertex 36.125 47.625 -6.6
      vertex -27.625 47.625 -4.5
    endloop
  endfacet
  facet normal 0 1 -0
    outer loop
      vertex 36.125 47.625 -6.6
      vertex 27.625 47.625 -4.5
      vertex 36.125 47.625 4.4
    endloop
  endfacet
  facet normal 0 1 -0
    outer loop
      vertex -27.625 47.625 -4.5
      vertex -36.125 47.625 4.4
      vertex -27.625 47.625 4.4
    endloop
  endfacet
  facet normal 0 1 0
    outer loop
      vertex -27.625 47.625 -4.5
      vertex -36.125 47.625 -6.6
      vertex -36.125 47.625 4.4
    endloop
  endfacet
  facet normal 0 1 0
    outer loop
      vertex -36.125 47.625 -6.6
      vertex -27.625 47.625 -4.5
      vertex 36.125 47.625 -6.6
    endloop
  endfacet
  facet normal 1 -0 0
    outer loop
      vertex -27 -35 4.4
      vertex -27 34.9 -4.5
      vertex -27 34.9 4.4
    endloop
  endfacet
  facet normal 1 0 0
    outer loop
      vertex -27 34.9 -4.5
      vertex -27 -35 4.4
      vertex -27 -35 -4.5
    endloop
  endfacet
  facet normal -1 0 0
    outer loop
      vertex 27 -35 -4.5
      vertex 27 34.9 4.4
      vertex 27 34.9 -4.5
    endloop
  endfacet
  facet normal -1 -0 0
    outer loop
      vertex 27 34.9 4.4
      vertex 27 -35 -4.5
      vertex 27 -35 4.4
    endloop
  endfacet
  facet normal 0 0 1
    outer loop
      vertex -27.625 42.15 -4.5
      vertex 27.625 42.15 -4.5
      vertex 27.625 47.625 -4.5
    endloop
  endfacet
  facet normal 0 0 1
    outer loop
      vertex 27 34.9 -4.5
      vertex -27 34.9 -4.5
      vertex 27 -35 -4.5
    endloop
  endfacet
  facet normal 0 0 1
    outer loop
      vertex 27.625 42.15 -4.5
      vertex -27.625 42.15 -4.5
      vertex 27 34.9 -4.5
    endloop
  endfacet
  facet normal 0 0 1
    outer loop
      vertex -27.625 42.15 -4.5
      vertex 27.625 47.625 -4.5
      vertex -27.625 47.625 -4.5
    endloop
  endfacet
  facet normal 0 0 1
    outer loop
      vertex 27 34.9 -4.5
      vertex -27.625 42.15 -4.5
      vertex -27 34.9 -4.5
    endloop
  endfacet
  facet normal 0 0 1
    outer loop
      vertex -34.125 34.9 -4.5
      vertex -27.625 42.15 -4.5
      vertex -34.125 42.15 -4.5
    endloop
  endfacet
  facet normal 0 0 1
    outer loop
      vertex -27.625 42.15 -4.5
      vertex -34.125 34.9 -4.5
      vertex -27 34.9 -4.5
    endloop
  endfacet
  facet normal -0 0 1
    outer loop
      vertex 27.625 42.15 -4.5
      vertex 34.125 34.9 -4.5
      vertex 34.125 42.15 -4.5
    endloop
  endfacet
  facet normal 0 0 1
    outer loop
      vertex 34.125 34.9 -4.5
      vertex 27.625 42.15 -4.5
      vertex 27 34.9 -4.5
    endloop
  endfacet
  facet normal 0 0 1
    outer loop
      vertex 27 -35 -4.5
      vertex -27 34.9 -4.5
      vertex -27 -35 -4.5
    endloop
  endfacet
  facet normal 0 1 -0
    outer loop
      vertex 27 -35 -4.5
      vertex -27 -35 4.4
      vertex 27 -35 4.4
    endloop
  endfacet
  facet normal 0 1 0
    outer loop
      vertex -27 -35 4.4
      vertex 27 -35 -4.5
      vertex -27 -35 -4.5
    endloop
  endfacet
  facet normal 1 -0 0
    outer loop
      vertex -34.125 34.9 4.4
      vertex -34.125 42.15 -4.5
      vertex -34.125 42.15 4.4
    endloop
  endfacet
  facet normal 1 0 0
    outer loop
      vertex -34.125 42.15 -4.5
      vertex -34.125 34.9 4.4
      vertex -34.125 34.9 -4.5
    endloop
  endfacet
  facet normal -1 0 0
    outer loop
      vertex 34.125 34.9 -4.5
      vertex 34.125 42.15 4.4
      vertex 34.125 42.15 -4.5
    endloop
  endfacet
  facet normal -1 -0 0
    outer loop
      vertex 34.125 42.15 4.4
      vertex 34.125 34.9 -4.5
      vertex 34.125 34.9 4.4
    endloop
  endfacet
  facet normal 0 -1 0
    outer loop
      vertex 27.625 42.15 -4.5
      vertex 34.125 42.15 4.4
      vertex 27.625 42.15 4.4
    endloop
  endfacet
  facet normal 0 -1 -0
    outer loop
      vertex 34.125 42.15 4.4
      vertex 27.625 42.15 -4.5
      vertex 34.125 42.15 -4.5
    endloop
  endfacet
  facet normal 0 -1 0
    outer loop
      vertex -34.125 42.15 -4.5
      vertex -27.625 42.15 4.4
      vertex -34.125 42.15 4.4
    endloop
  endfacet
  facet normal 0 -1 -0
    outer loop
      vertex -27.625 42.15 4.4
      vertex -34.125 42.15 -4.5
      vertex -27.625 42.15 -4.5
    endloop
  endfacet
  facet normal 0 1 -0
    outer loop
      vertex -27 34.9 -4.5
      vertex -34.125 34.9 4.4
      vertex -27 34.9 4.4
    endloop
  endfacet
  facet normal 0 1 0
    outer loop
      vertex -34.125 34.9 4.4
      vertex -27 34.9 -4.5
      vertex -34.125 34.9 -4.5
    endloop
  endfacet
  facet normal 0 1 -0
    outer loop
      vertex 34.125 34.9 -4.5
      vertex 27 34.9 4.4
      vertex 34.125 34.9 4.4
    endloop
  endfacet
  facet normal 0 1 0
    outer loop
      vertex 27 34.9 4.4
      vertex 34.125 34.9 -4.5
      vertex 27 34.9 -4.5
    endloop
  endfacet
  facet normal 1 -0 0
    outer loop
      vertex -27.625 42.15 4.4
      vertex -27.625 47.625 -4.5
      vertex -27.625 47.625 4.4
    endloop
  endfacet
  facet normal 1 0 0
    outer loop
      vertex -27.625 47.625 -4.5
      vertex -27.625 42.15 4.4
      vertex -27.625 42.15 -4.5
    endloop
  endfacet
  facet normal -1 0 0
    outer loop
      vertex 27.625 42.15 -4.5
      vertex 27.625 47.625 4.4
      vertex 27.625 47.625 -4.5
    endloop
  endfacet
  facet normal -1 -0 0
    outer loop
      vertex 27.625 47.625 4.4
      vertex 27.625 42.15 -4.5
      vertex 27.625 42.15 4.4
    endloop
  endfacet
endsolid OpenSCAD_Model
